Coordinates
version=1
nRows=60
nColumns=12
inDegrees=yes

Units are S.I. units (second, meters, Newtons, ...)
Angles are in degrees

endheader
time	SC_y	SC_z	SC_x	AC_y	AC_z	AC_x	GH_y	GH_z	GH_yy	EL_x	PS_y
       0.0              -55.86          20.53           42.4          30.49         -19.28          13.28         -101.1          42.86          46.42          122.2          83.88
  0.005516              -55.86          20.53           42.4          30.49         -19.28          13.27         -101.1          42.85          46.41          122.2          83.88
   0.01103              -55.86          20.53          42.41           30.5         -19.28          13.27         -101.1          42.85          46.39          122.2          83.88
   0.01655              -55.86          20.53          42.41           30.5         -19.27          13.26         -101.1          42.84          46.38          122.1          83.88
   0.02206              -55.86          20.53          42.42          30.51         -19.27          13.26         -101.1          42.83          46.36          122.1          83.87
   0.02758              -55.86          20.53          42.42          30.51         -19.27          13.25         -101.1          42.82          46.34          122.1          83.87
   0.03309              -55.86          20.53          42.43          30.52         -19.26          13.24         -101.1          42.81          46.33          122.1          83.87
   0.03861              -55.86          20.53          42.44          30.52         -19.26          13.24         -101.1           42.8          46.31          122.1          83.86
   0.04413              -55.86          20.53          42.45          30.53         -19.25          13.23         -101.1          42.79          46.28          122.0          83.86
   0.04964              -55.86          20.53          42.45          30.54         -19.25          13.22         -101.1          42.78          46.26          122.0          83.85
   0.05516              -55.86          20.53          42.46          30.55         -19.24          13.21         -101.1          42.77          46.24          122.0          83.85
   0.06067              -55.86          20.53          42.47          30.55         -19.24          13.21         -101.1          42.76          46.21          122.0          83.84
   0.06619              -55.86          20.53          42.48          30.56         -19.23           13.2         -101.1          42.75          46.18          121.9          83.84
    0.0717              -55.86          20.53          42.49          30.57         -19.23          13.19         -101.1          42.73          46.15          121.9          83.83
   0.07722              -55.86          20.53           42.5          30.58         -19.22          13.17         -101.1          42.72          46.12          121.8          83.83
   0.08274              -55.87          20.53          42.52          30.59         -19.21          13.16         -101.2           42.7          46.08          121.8          83.82
   0.08825              -55.87          20.53          42.53          30.61          -19.2          13.15         -101.2          42.68          46.04          121.8          83.81
   0.09377              -55.87          20.53          42.55          30.62          -19.2          13.13         -101.2          42.66           46.0          121.7           83.8
   0.09928              -55.87          20.53          42.56          30.64         -19.19          13.12         -101.2          42.64          45.95          121.7          83.79
    0.1048              -55.87          20.53          42.58          30.65         -19.18           13.1         -101.2          42.62           45.9          121.6          83.79
    0.1103              -55.87          20.53           42.6          30.67         -19.16          13.08         -101.2          42.59          45.84          121.5          83.77
    0.1158              -55.87          20.53          42.62          30.69         -19.15          13.06         -101.2          42.56          45.78          121.5          83.76
    0.1213              -55.87          20.53          42.65          30.71         -19.14          13.04         -101.3          42.53          45.71          121.4          83.75
    0.1269              -55.88          20.53          42.67          30.73         -19.12          13.01         -101.3          42.49          45.63          121.3          83.74
    0.1324              -55.88          20.53           42.7          30.76          -19.1          12.98         -101.3          42.45          45.55          121.2          83.72
    0.1379              -55.88          20.53          42.74          30.79         -19.08          12.95         -101.3          42.41          45.45          121.1           83.7
    0.1434              -55.88          20.53          42.78          30.82         -19.06          12.92         -101.3          42.36          45.35          121.0          83.68
    0.1489              -55.88          20.53          42.82          30.86         -19.04          12.88         -101.4          42.31          45.23          120.9          83.66
    0.1544              -55.89          20.53          42.86           30.9         -19.01          12.83         -101.4          42.24          45.09          120.7          83.63
      0.16              -55.89          20.52          42.92          30.95         -18.98          12.78         -101.5          42.17          44.94          120.6          83.61
    0.1655              -55.89          20.52          42.98          31.01         -18.94          12.72         -101.5          42.09          44.76          120.4          83.57
     0.171               -55.9          20.52          43.05          31.07          -18.9          12.65         -101.6           42.0          44.56          120.2          83.53
    0.1765               -55.9          20.52          43.13          31.14         -18.86          12.58         -101.6          41.89          44.33          119.9          83.49
     0.182              -55.91          20.52          43.23          31.23          -18.8          12.49         -101.7          41.77          44.06          119.6          83.44
    0.1875              -55.92          20.52          43.34          31.33         -18.74          12.38         -101.8          41.62          43.74          119.3          83.38
    0.1931              -55.92          20.52          43.47          31.44         -18.66          12.26         -101.9          41.45          43.37          118.9          83.31
    0.1986              -55.93          20.52          43.62          31.58         -18.57          12.11         -102.0          41.25          42.93          118.4          83.23
    0.2041              -55.94          20.52          43.81          31.75         -18.46          11.93         -102.1           41.0           42.4          117.8          83.13
    0.2096              -55.96          20.51          44.04          31.95         -18.33          11.72         -102.3           40.7          41.76          117.1          83.01
    0.2151              -55.97          20.51          44.31           32.2         -18.17          11.46         -102.5          40.34          40.98          116.3          82.86
    0.2206               -56.0          20.51          44.65           32.5         -17.97          11.13         -102.7           39.9          40.01          115.2          82.68
    0.2261              -56.02           20.5          45.08          32.88         -17.73          10.73         -103.1          39.34          38.81          113.9          82.46
    0.2317              -56.05           20.5          45.61          33.35         -17.42          10.22         -103.5          38.64          37.29          112.2          82.17
    0.2372              -56.09          20.49          46.29          33.96         -17.03          9.576         -104.0          37.75          35.36          110.1          81.81
    0.2427              -56.15          20.49          47.16          34.73         -16.52           8.75         -104.6           36.6          32.89          107.4          81.35
    0.2482              -56.21          20.48          48.27          35.73         -15.87           7.69         -105.4          35.14          29.72          104.0          80.75
    0.2537               -56.3          20.46          49.69           37.0         -15.05          6.336         -106.5          33.27          25.67          99.59          79.99
    0.2592              -56.41          20.45          51.48           38.6         -14.01          4.634         -107.8          30.92          20.58          94.05          79.04
    0.2648              -56.54          20.43          53.67          40.54         -12.74          2.559         -109.5          28.05          14.38           87.3          77.88
    0.2703              -56.69           20.4          56.19           42.8         -11.28         0.1537         -111.4          24.73          7.188          79.47          76.53
    0.2758              -56.86          20.38          58.93          45.24         -9.688          -2.45         -113.4          21.13         -0.598          70.99          75.07
    0.2813              -57.03          20.35          61.67          47.69           -8.1         -5.055         -115.5          17.53         -8.384          62.52          73.61
    0.2868              -57.18          20.33           64.2          49.95         -6.632          -7.46         -117.3          14.21         -15.57          54.69          72.26
    0.2923              -57.31          20.31          66.38          51.89         -5.367         -9.534         -119.0          11.34         -21.78          47.93           71.1
    0.2978              -57.42          20.29          68.17          53.49         -4.328         -11.24         -120.3           8.99         -26.87          42.39          70.14
    0.3034              -57.51          20.28          69.59          54.76         -3.502         -12.59         -121.4          7.119         -30.92          37.99          69.39
    0.3089              -57.57          20.27          70.71          55.76         -2.855         -13.65         -122.2          5.654         -34.08          34.53          68.79
    0.3144              -57.63          20.26          71.58          56.53         -2.351         -14.48         -122.9          4.513         -36.55          31.85          68.33
    0.3199              -57.67          20.25          72.26          57.14         -1.958         -15.12         -123.4          3.621         -38.48          29.75          67.97
    0.3254               -57.7          20.25          72.79          57.61         -1.648         -15.63         -123.8           2.92          -40.0          28.09          67.68
